# xmcd
#
# Track frame offsets:
#	150
#	30250
#	49034
#	77845
#	107501
#	125188
#	156695
#
# Disc length: 2445 seconds
#
# Revision: 0
# Processed by: cddbd v1.5.2PL0 Copyright (c) Steve Scherf et al.
# Submitted via: dBpowerAMP V4.0
#
DISCID=56098b07
DTITLE=Midnight Choir - Die Halle - Reichenbach live\CD 2
DYEAR=1900
DGENRE=
TTITLE0=Painting My Matisse
TTITLE1=October 8
TTITLE2=Sister Of Mercy
TTITLE3=Spiritual
TTITLE4=Dear Friend
TTITLE5=An American Trilogy
TTITLE6=Turning Of The Tide
EXTD=
EXTT0=
EXTT1=
EXTT2=
EXTT3=
EXTT4=
EXTT5=
EXTT6=
PLAYORDER=
